<svg version="1" xmlns="http://www.w3.org/2000/svg" width="2936" height="2936" viewBox="0 0 2202.000000 2202.000000"><path d="M229 656.5c-34.5 4.2-63.1 14.2-91.9 32-50.5 31.2-88 85.4-99.1 143.2-3.1 16.2-3.9 26.4-6.5 81.8-1.4 29.1-3.6 75.9-5 104-2.9 58.6-7.9 162.5-13 268-1.9 40.1-4.4 91.4-5.5 114-2.8 55.9-7 144.7-7 146.3 0 1 195.8 1.2 985.8.9 944.5-.2 986.1-.3 996.1-2 40.2-7 75.6-22.8 105.6-47 11.6-9.4 28.9-27.6 38.2-40.1 20.5-27.5 34.1-59.4 39.8-93.2 2.6-15.1 3-21.2 7-108.9 1.4-29.7 3.9-83.3 5.5-119 1.7-35.8 4.4-94.3 6-130 1.7-35.8 3.7-79 4.5-96 .8-17.1 1.7-36.6 2-43.5.3-6.9 1.2-26.5 2-43.5 3.2-67.6 7.5-162 7.5-165.1V655l-980.7.1c-793.3.1-982.8.4-991.3 1.4zm289.5 182.8c21 3.7 36 8.4 54.1 17.1 45.7 22 77.1 57.3 93.8 105.5 12.9 36.9 13.1 85.1.7 122.9-18 54.7-56.9 95-111.6 115.3-10 3.8-19.1 6.2-33.6 9-10.7 2.1-14.6 2.3-63.1 2.7l-51.8.3V1355l-71.2-.2-71.3-.3-.3-258.8-.2-258.8 122.2.4c110.4.3 123.3.5 132.3 2zM886 1030.5V1224h184v131H741V837h145v193.5zm393 65.5v259l-72.2-.2-72.3-.3-.3-258.8-.2-258.7h145v259zm468-242.5V870l-31.4 57.7c-17.2 31.8-59.3 109.5-93.6 172.8-34.2 63.2-62.8 116-63.6 117.2-.8 1.2-1.4 2.7-1.4 3.3 0 .7 31.6 1 99.5 1h99.5v133h-410v-29.4l22.4-41.5c12.3-22.9 40.5-75.1 62.6-116.1 81.2-150.6 104.9-194.6 105.6-196.3.6-1.6-4.9-1.7-88.5-1.7H1359V837h388v16.5zm222.5 242.5v258.5l-72.2.3-72.3.2V837l72.3.2 72.2.3V1096z"/><path d="M407.8 961.6c-.5.4-.8 28.8-.8 63.1v62.3h34.8c38.9 0 43.6-.6 55.9-6.5 13.4-6.3 24-18.7 29-33.9 2.3-7.2 2.6-9.7 2.7-22.1 0-12.6-.3-14.8-2.7-22.1-6.5-19.7-22.5-34.6-42.2-39.4-5.7-1.4-75.5-2.7-76.7-1.4z"/></svg>